PathFileType	4	(X/Y/Z)	2014001\dynamic\2014001_C1_05.trc
DataRate	CameraRate	NumFrames	NumMarkers	Units	OrigDataRate	OrigDataStartFrame	OrigNumFrames
100.000000	100.000000	4	52	mm	100.000000	0	549
Frame#	Time	L_IAS			L_IPS			R_IPS			R_IAS			L_FTC			L_FLE			L_FME			L_FAX			L_TTC			L_FAL			L_TAM			L_FCC			L_FM1			L_FM2			L_FM5			R_FTC			R_FLE			R_FME			R_FAX			R_TTC			R_FAL			R_TAM			R_FCC			R_FM1			R_FM2			R_FM5			CV7			TV10			SXS			SJN			L_SIA			L_SRS			L_SAA			L_SAE			L_HLE			L_HME			L_UOA			L_RSP			L_UHE			L_HM2			L_HM5			R_SIA			R_SRS			R_SAA			R_SAE			R_HLE			R_HME			R_UOA			R_RSP			R_UHE			R_HM2			R_HM5			
		X1	Y1	Z1	X2	Y2	Z2	X3	Y3	Z3	X4	Y4	Z4	X5	Y5	Z5	X6	Y6	Z6	X7	Y7	Z7	X8	Y8	Z8	X9	Y9	Z9	X10	Y10	Z10	X11	Y11	Z11	X12	Y12	Z12	X13	Y13	Z13	X14	Y14	Z14	X15	Y15	Z15	X16	Y16	Z16	X17	Y17	Z17	X18	Y18	Z18	X19	Y19	Z19	X20	Y20	Z20	X21	Y21	Z21	X22	Y22	Z22	X23	Y23	Z23	X24	Y24	Z24	X25	Y25	Z25	X26	Y26	Z26	X27	Y27	Z27	X28	Y28	Z28	X29	Y29	Z29	X30	Y30	Z30	X31	Y31	Z31	X32	Y32	Z32	X33	Y33	Z33	X34	Y34	Z34	X35	Y35	Z35	X36	Y36	Z36	X37	Y37	Z37	X38	Y38	Z38	X39	Y39	Z39	X40	Y40	Z40	X41	Y41	Z41	X42	Y42	Z42	X43	Y43	Z43	X44	Y44	Z44	X45	Y45	Z45	X46	Y46	Z46	X47	Y47	Z47	X48	Y48	Z48	X49	Y49	Z49	X50	Y50	Z50	X51	Y51	Z51	X52	Y52	Z52	

1	0	251.3037872314454	870.6154174804692	36.10924148559572	183.3167877197266	896.1577758789067	-148.3939514160157	94.75520324707034	892.2252807617192	-153.1739196777344	6.97080230712891	862.4722290039067	18.83062362670899	317.0686950683595	787.3539428710942	-30.1300621032715	306.9743957519532	451.2277832031252	84.25990295410159	193.9167327880861	443.546081542969	113.7625961303712	314.8547363281251	385.9441223144534	84.3500671386719	273.7386169433595	388.6416931152346	153.323471069336	298.9158020019532	73.70326995849612	175.9749450683594	212.6959991455079	91.11634826660159	204.0030364990236	252.2422790527345	16.14947891235352	157.8175354003907	243.8994903564454	94.31050872802737	321.0565185546876	303.274139404297	100.010856628418	317.4118652343751	336.3467407226564	65.21843719482425	279.3087158203126	-34.2269744873047	767.8741455078127	-84.39326477050784	33.9617042541504	422.1127014160159	-110.7506256103516	152.9574432373047	418.5315246582034	-91.29141998291018	38.53899383544923	358.1884155273439	-140.3395080566407	87.89731597900393	345.142059326172	-79.80516052246097	117.7129440307618	67.34489440917972	-240.4577178955079	198.889862060547	80.99465179443362	-192.0647583007814	180.1987304687501	28.94010162353517	-278.6846618652345	172.355209350586	22.59250450134278	-93.84356689453128	109.0559082031251	35.06856536865236	-93.32672119140628	69.3652267456055	22.86906623840333	-159.8419189453126	138.8958435058594	1365.560180664063	-133.8603515625001	140.5147552490235	1130.0732421875	-196.2858276367189	138.8721923828126	1135.033325195313	33.98140716552736	140.5561828613282	1295.952392578125	-7.790166378021244	229.8648223876954	1168.970458984375	-203.5538940429689	224.1791381835939	1300.564331054688	-182.0796051025391	332.1417846679689	1296.7724609375	-111.4088211059571	319.6839904785157	1307.921752929688	-70.41489410400393	392.8611755371096	1026.704833984375	-127.2040939331055	314.8506164550782	995.1989746093755	-144.2592163085938	362.9208374023439	993.2791137695317	-157.2957916259766	368.748992919922	796.9782714843755	-25.6422519683838	428.8861083984377	793.2324218750005	-79.17077636718753	382.8122863769532	717.3566894531252	7.219147205352787	431.6285400390627	714.403259277344	-82.78830718994143	26.15524673461915	1175.650390625	-205.1831359863282	50.12833786010745	1298.814819335938	-175.0506134033204	-53.74971389770511	1297.146606445313	-99.44877624511724	-42.20557785034181	1300.824584960938	-51.24098205566409	-117.9736709594727	998.9729614257817	-102.1467514038087	-42.94310760498048	983.0178222656255	-130.5609588623047	-89.37246704101565	976.0405883789067	-134.4510192871094	-90.46106719970706	794.0939941406255	0.833034992218018	-152.9766693115235	790.8245239257817	-50.23072052001956	-113.6282196044922	717.7580566406252	45.25679397583009	-156.8029479980469	711.4666748046877	-49.76479339599612	
2	0.01	251.8825531005861	869.8370971679692	38.95531463623048	184.3072814941407	896.0180664062505	-145.6214752197266	95.78005981445315	892.1376342773442	-150.4998321533204	7.520607471466068	862.1884765625005	21.08281898498536	317.6448669433595	786.7907714843755	-27.40468025207521	307.1773071289064	450.0126953125002	84.6254806518555	194.1716613769532	442.314636230469	114.0095214843751	315.0048828125001	384.6819152832034	84.40984344482425	273.9306945800782	387.2095031738284	153.4159545898438	298.8365783691407	72.20284271240237	175.3573150634766	212.6231079101564	89.63427734375003	203.4427185058595	252.0489807128907	14.75547122955323	157.0554351806641	243.8910980224611	92.29126739501956	320.6047973632814	303.2790527343751	97.94011688232428	316.9521484375001	336.2825622558595	63.25491714477542	278.7117919921876	-33.54933929443361	767.889587402344	-82.40836334228518	34.2627296447754	422.1571044921877	-109.8055725097657	153.1996307373047	418.3468322753909	-90.08825683593753	38.81046295166017	358.3300170898439	-139.5541229248047	88.0773849487305	344.9547424316407	-79.04371643066409	117.7748641967774	67.63687133789065	-240.3659515380861	198.8553619384767	81.08730316162112	-191.7662658691407	180.292465209961	29.2969264984131	-278.6142883300782	172.2814941406251	22.61095428466798	-93.80694580078128	109.0161819458008	35.05005264282228	-93.31671905517581	69.37824249267581	22.86326217651368	-159.8685760498047	140.172348022461	1365.27734375	-131.4508514404297	141.8368377685547	1129.686645507813	-193.6494293212892	139.6443634033204	1134.83984375	36.57901763916017	141.5107574462891	1295.708740234375	-5.327342987060549	231.1778717041017	1168.530029296875	-200.7747344970704	225.5195617675782	1300.161865234375	-179.419662475586	333.3255920410157	1296.366088867188	-108.5316009521485	320.7961730957032	1307.562377929688	-67.57825469970706	393.9605712890627	1026.246948242188	-123.9996643066407	315.9564208984376	994.7579956054692	-141.1793975830079	364.0774536132814	992.7667846679692	-154.1051330566407	369.4002685546876	796.805786132813	-21.8796672821045	429.6607666015627	792.825561523438	-75.39460754394534	383.3489379882814	717.2032470703127	11.10242080688477	432.347106933594	713.9907836914065	-78.79177093505862	27.57508277893068	1175.335083007813	-202.9710540771486	51.4986381530762	1298.4794921875	-172.7645111083985	-52.57231521606448	1296.918334960938	-97.49896240234381	-41.17421340942384	1300.593505859375	-49.23938369750979	-116.9654006958008	998.8079223632817	-100.320915222168	-41.88379287719728	982.831420898438	-128.6114807128907	-88.312126159668	975.893920898438	-132.6118469238282	-89.81626129150393	793.8519897460942	2.55523180961609	-152.2472229003907	790.6685180664067	-48.65858840942386	-113.1828002929688	717.5074462890627	46.86928939819337	-156.1446533203126	711.3129882812502	-48.24743652343753	
3	0.02	252.493377685547	869.0728149414067	41.85698318481447	185.3313598632813	895.9021606445317	-142.7948150634766	96.83865356445318	892.0708007812505	-147.760971069336	8.111085891723636	861.9054565429692	23.40796470642091	318.2603149414064	786.2505493164067	-24.61664390563966	307.4239501953126	448.8009033203127	84.91868591308597	194.4648895263673	441.0768737792971	114.175895690918	315.1903686523439	383.4243774414064	84.39106750488284	274.165985107422	385.7898254394534	153.4474792480469	298.785858154297	70.74233245849612	174.7554473876954	212.5870208740236	88.1977462768555	202.9166870117189	251.8762054443361	13.50501155853272	156.2000122070313	243.9433441162111	90.20777130126956	320.1989746093751	303.3359375000001	95.81257629394534	316.5339660644532	336.2576904296876	61.25846481323245	278.1244201660157	-32.83285140991212	767.9163208007815	-80.35800933837893	34.58183670043947	422.2256469726565	-108.8268432617188	153.4494018554688	418.1665039062502	-88.85794830322268	39.09349822998048	358.4943847656251	-138.7459259033204	88.28170013427737	344.7688598632814	-78.27786254882815	117.8219985961915	67.94851684570315	-240.2702941894532	198.8263092041017	81.20597076416018	-191.4958648681641	180.3611907958985	29.68287277221681	-278.5490722656251	172.2049407958985	22.6317253112793	-93.7748718261719	108.9748153686524	35.03260421752931	-93.30555725097659	69.38602447509768	22.85303688049317	-159.8898620605469	141.475570678711	1365.00244140625	-128.9641265869141	143.1837921142579	1129.312255859375	-190.9395599365235	140.4534301757813	1134.658447265625	39.2480926513672	142.4987945556641	1295.475341796875	-2.797300815582276	232.5184936523439	1168.093994140625	-197.9246063232423	226.8912506103517	1299.771118164063	-176.6918182373047	334.5444946289064	1295.96240234375	-105.5853576660157	321.9409484863282	1307.203491210938	-64.66712951660159	395.0877685546877	1025.790161132813	-120.7246856689454	317.0932006835939	994.3203125000005	-138.0311279296876	365.2615356445314	992.259155273438	-150.8442382812501	370.0759277343751	796.6357421875005	-18.0459098815918	430.4624938964846	792.417602539063	-71.56390380859378	383.912567138672	717.0480957031252	15.03264141082764	433.0936279296877	713.5798339843752	-74.74433898925784	29.03689002990724	1175.0234375	-200.6950836181642	52.90893173217776	1298.16162109375	-170.4232940673829	-51.35965728759768	1296.68896484375	-95.48651123046878	-40.11171722412111	1300.363647460938	-47.17424774169923	-115.9182434082032	998.649291992188	-98.45069122314459	-40.7833824157715	982.6411743164067	-126.5868225097657	-87.21147918701175	975.741821289063	-130.6982727050782	-89.12729644775393	793.6041870117192	4.349215030670168	-151.4812164306641	790.5123901367192	-47.01514053344728	-112.709701538086	717.2603149414065	48.5590515136719	-155.4458465576172	711.155456542969	-46.65077590942384	
4	0.03	253.1395111083986	868.343139648438	44.8029251098633	186.3849792480469	895.8156738281255	-139.9250030517579	97.92467498779303	892.0336303710942	-144.9725799560547	8.746326446533207	861.632446289063	25.80546951293947	318.9171752929689	785.744018554688	-21.78275108337403	307.7250976562501	447.613952636719	85.15779113769534	194.8086853027345	439.8595275878909	114.291862487793	315.4215698242189	382.1938781738282	84.32270050048831	274.4581604003907	384.4128417968752	153.4502868652344	298.7740478515626	69.35871887207034	174.2368316650391	212.6042938232423	86.848258972168	202.5027465820314	251.7215423583986	12.44315719604493	155.3161163330079	244.079559326172	88.08674621582034	319.9118957519532	303.4671325683595	93.65312194824222	316.2252807617189	336.2905273437501	59.25399398803714	277.606658935547	-32.07812881469728	767.9587402343752	-78.23870086669925	34.91796112060548	422.3235168457034	-107.805274963379	153.7080078125001	417.9970703125002	-87.59610748291018	39.38629531860353	358.6873474121095	-137.9061431884766	88.50640106201175	344.5945434570314	-77.49577331542972	117.8505630493165	68.28461456298831	-240.1679840087892	198.802947998047	81.36112976074222	-191.2589263916016	180.3992614746094	30.10743713378908	-278.4890441894532	172.1263885498047	22.65555000305176	-93.74946594238284	108.9311828613282	35.0160255432129	-93.29224395751956	69.38801574707034	22.83735656738282	-159.9041137695313	142.8052825927735	1364.74267578125	-126.3968734741212	144.5511322021485	1128.962768554688	-188.1618652343751	141.3010559082032	1134.494140625	41.98441696166994	143.5204772949219	1295.259399414063	-0.1996419429779054	233.8860778808595	1167.675048828125	-195.0066833496095	228.2934875488282	1299.40478515625	-173.8964996337891	335.7983398437501	1295.569213867188	-102.5696563720704	323.1162414550782	1306.850708007813	-61.67792129516604	396.240905761719	1025.341674804688	-117.3741683959962	318.2587280273439	993.8927612304692	-134.8119049072266	366.4707336425782	991.764526367188	-147.5091400146485	370.777313232422	796.468872070313	-14.15026569366456	431.2919921875002	792.0153198242192	-67.68145751953128	384.5041503906252	716.8931274414065	19.00253105163575	433.8699951171877	713.176940917969	-70.65314483642581	30.53666305541994	1174.726318359375	-198.3527679443361	54.35663223266604	1297.874755859375	-168.0285034179688	-50.11326980590823	1296.46728515625	-93.40560150146487	-39.01811599731447	1300.143432617188	-45.04016113281251	-114.8299942016602	998.5078125000005	-96.53977203369146	-39.6390953063965	982.4545288085942	-124.480827331543	-86.06719970703128	975.5928344726567	-128.7037963867188	-88.39276123046878	793.3538208007817	6.213402271270756	-150.6761932373047	790.3618774414067	-45.30096817016603	-112.2060775756837	717.0195312500002	50.32254028320315	-154.7041778564454	710.9998168945315	-44.97862625122072	
